<?xml version="1.0" encoding="UTF-8" standalone="no"?>
<svg
   xmlns:dc="http://purl.org/dc/elements/1.1/"
   xmlns:cc="http://creativecommons.org/ns#"
   xmlns:rdf="http://www.w3.org/1999/02/22-rdf-syntax-ns#"
   xmlns:svg="http://www.w3.org/2000/svg"
   xmlns="http://www.w3.org/2000/svg"
   xmlns:sodipodi="http://sodipodi.sourceforge.net/DTD/sodipodi-0.dtd"
   xmlns:inkscape="http://www.inkscape.org/namespaces/inkscape"
   version="1.1"
   id="Layer_1"
   x="0px"
   y="0px"
   viewBox="0 0 612 612"
   style="enable-background:new 0 0 612 612;"
   xml:space="preserve"
   sodipodi:docname="AppVenture Logo (copy).svg"
   inkscape:version="1.0.1 (3bc2e813f5, 2020-09-07)"><metadata
   id="metadata23"><rdf:RDF><cc:Work
       rdf:about=""><dc:format>image/svg+xml</dc:format><dc:type
         rdf:resource="http://purl.org/dc/dcmitype/StillImage" /></cc:Work></rdf:RDF></metadata><defs
   id="defs21">
	
		
	
</defs><sodipodi:namedview
   pagecolor="#ffffff"
   bordercolor="#666666"
   borderopacity="1"
   objecttolerance="10"
   gridtolerance="10"
   guidetolerance="10"
   inkscape:pageopacity="0"
   inkscape:pageshadow="2"
   inkscape:window-width="1920"
   inkscape:window-height="1040"
   id="namedview19"
   showgrid="false"
   inkscape:zoom="1.0190657"
   inkscape:cx="263.59039"
   inkscape:cy="314.68303"
   inkscape:window-x="0"
   inkscape:window-y="40"
   inkscape:window-maximized="0"
   inkscape:current-layer="Layer_1" />
<style
   type="text/css"
   id="style2">
	.st0{fill:#242635;stroke:#B5DECA;stroke-width:3;stroke-miterlimit:10;}
	.st1{fill:#65C5B3;stroke:#65C5B3;stroke-width:7;stroke-linecap:round;stroke-linejoin:round;stroke-miterlimit:10;}
	.st2{fill:#B5DECA;}
	.st3{fill:none;stroke:#B5DECA;stroke-width:4;stroke-linejoin:round;stroke-miterlimit:10;}
</style>

<path
   class="st1"
   d="M136.9,499l170.7-394.8c57,129.6,116,265.2,173,394.8L308.7,241.3C308.7,241.3,145.9,489.1,136.9,499z"
   id="path6" />
<g
   id="g14">
		<path
   class="st2"
   d="m 145.2,389.6 c 0,0 90.4,6.4 161.7,57.3 28,-33.1 73.8,-85.3 165.5,-136.2 -66.2,12 -174.4,86.6 -174.4,86.6 0,0 -87.9,-15.4 -152.8,-7.7 z"
   id="path10" />
		<path
   class="st3"
   d="m 145.2,389.6 c 0,0 90.4,6.4 161.7,57.3 28,-33.1 73.8,-85.3 165.5,-136.2 -66.2,12 -174.4,86.6 -174.4,86.6 0,0 -87.9,-15.4 -152.8,-7.7 z"
   id="path12" />
	</g>
</svg>
