<?xml version="1.0" encoding="utf-8"?>
<!-- Generator: Adobe Illustrator 24.0.1, SVG Export Plug-In . SVG Version: 6.00 Build 0)  -->
<svg version="1.1"
	 id="svg8" inkscape:version="0.92.4 (unknown)" sodipodi:docname="nushigh_color.svg" xmlns:cc="http://creativecommons.org/ns#" xmlns:dc="http://purl.org/dc/elements/1.1/" xmlns:inkscape="http://www.inkscape.org/namespaces/inkscape" xmlns:rdf="http://www.w3.org/1999/02/22-rdf-syntax-ns#" xmlns:sodipodi="http://sodipodi.sourceforge.net/DTD/sodipodi-0.dtd" xmlns:svg="http://www.w3.org/2000/svg"
	 xmlns="http://www.w3.org/2000/svg" xmlns:xlink="http://www.w3.org/1999/xlink" x="0px" y="0px" viewBox="0 0 1049.8 568.8"
	 style="enable-background:new 0 0 1049.8 568.8;" xml:space="preserve">
<style type="text/css">
	.st0{fill:#313A44;}
	.st1{fill:#43919D;}
</style>
<sodipodi:namedview  bordercolor="#666666" borderopacity="1.0" fit-margin-bottom="0" fit-margin-left="0" fit-margin-right="0" fit-margin-top="0" id="base" inkscape:current-layer="layer1" inkscape:cx="2051.2688" inkscape:cy="356.34273" inkscape:document-units="mm" inkscape:pageopacity="0.0" inkscape:pageshadow="2" inkscape:snap-global="false" inkscape:window-height="1040" inkscape:window-maximized="1" inkscape:window-width="1920" inkscape:window-x="0" inkscape:window-y="40" inkscape:zoom="0.35" pagecolor="#ffffff" showgrid="false">
	</sodipodi:namedview>
<path id="path3982" inkscape:connector-curvature="0" class="st0" d="M728.7,566.4c-4.5-0.4-7.7-1.8-10.2-4.3
	c-2.4-2.4-3.6-4.7-4.1-8.2c-0.5-3.5,0.6-7.9,2.7-11.3c1.2-2,4.1-4.9,6.3-6.4c2.1-1.4,2-1.4-0.1-4.3c-4.5-6-5.1-10.6-2-15.2
	c1.1-1.6,2.6-2.8,5.2-4.1c2.6-1.3,4.6-1.7,7.3-1.7c5.8,0,11.1,2.8,13,6.9c0.7,1.5,0.8,1.8,0.8,4.3c0,2.5-0.1,2.7-0.7,4.2
	c-1.2,2.5-5.8,7.6-8.3,9.3c-1.3,0.8-1.4,1-1.2,1.5c0.1,0.4,8.9,10.6,10.3,11.9c0.5,0.5,1,0.7,1.2,0.6c0.7-0.3,1.7-4,2.2-8.6l0.2-1.4
	l3.5-0.1l3.5-0.1l-0.1,1.1c-0.5,4.5-1.7,8.9-3.3,12c-0.9,1.8-1.1,2.8-0.6,3.7c0.1,0.3,1.9,2.2,3.9,4.2l3.6,3.7l-1.5,0.2
	c-0.8,0.1-2.9,0.2-4.5,0.2l-3,0.1l-0.6-0.8c-0.4-0.4-1-1.2-1.4-1.8c-1.4-1.7-2.4-1.8-4-0.5c-0.5,0.4-1.8,1.2-2.9,1.7
	C738.9,565.9,733.6,566.9,728.7,566.4L728.7,566.4z M734.8,559.4c2-0.5,4.4-1.5,6.3-2.9c1.7-1.1,2-1.4,2-2c0-0.5-1.2-2-5.5-6.8
	c-3.3-3.7-5.7-6.2-6.1-6.3c-0.9-0.2-3,1.2-5.5,3.6c-2.3,2.3-3.3,3.9-3.7,6.2c-0.5,2.4,0.6,5.1,2.6,6.5c2,1.4,3.5,1.8,6.3,1.8
	C732.7,559.7,734.3,559.6,734.8,559.4L734.8,559.4z M735,530.4c2.1-1.5,4.3-3.9,5-5.4c1.4-3,0.2-6.3-2.8-7.6c-1.3-0.6-5-0.8-6.6-0.4
	c-5,1.4-4.9,8,0.3,13.6C732.3,532,732.9,531.9,735,530.4L735,530.4z M901.8,566.4c-2.2-0.3-4.6-1.1-7.1-2.3
	c-4.2-2.1-6.9-5.6-8.3-10.8c-0.6-2.1-0.6-2.8-0.6-6.5c0-3.8,0.1-4.4,0.6-6.5c1.4-5.3,4.5-9.2,8.8-11.3c2.7-1.3,5.1-1.8,8.5-1.8
	c3.3,0,5.8,0.5,8.2,1.6c4.6,2.2,7.7,5.9,9,11.2c0.5,2,1,7.6,0.8,8.8l-0.1,0.7h-13.4c-14.8,0-14.4,0-14.4,1.5c0,2.3,1.6,6.1,3.2,7.5
	c2.1,1.9,5.6,2.8,9.4,2.3c4.2-0.5,7-2.1,8.1-4.7l0.5-1.1h3c1.7,0,3,0.1,3,0.2c0,0.6-0.9,3-1.5,4.2c-2.1,3.9-7.8,6.9-13.9,7.2
	C904.3,566.6,902.6,566.5,901.8,566.4L901.8,566.4z M913.8,543c0.4-0.2,0.4-0.4,0.3-1.2c-0.4-2.7-2.3-6-4.3-7.4
	c-2-1.4-3.1-1.7-6.1-1.7c-4.3,0-6.6,1.1-8.1,3.9c-0.7,1.3-1.6,4.4-1.6,5.6c0,1.3-0.1,1.2,10,1.2C909.1,543.3,913.5,543.1,913.8,543
	L913.8,543z M1023.6,566.2c-7.5-1.4-12.6-6-14.4-13.3c-0.4-1.8-0.5-2.8-0.5-6.1c0-4.8,0.5-7.1,2.2-10.6c3.2-6.4,9.9-9.8,17.9-9.1
	c7.6,0.7,13.2,5.5,15.1,12.6c0.5,2,1,8.1,0.8,9.1l-0.1,0.6h-13.5c-15.6,0-14.4-0.2-14.2,2.2c0.3,3.1,1.8,6,3.8,7.4
	c2.5,1.8,7.6,2.3,11.4,1.1c1.1-0.3,2.4-1,3.1-1.4c1.1-0.7,2.3-2.2,2.3-2.8c0-0.2,0.2-0.5,0.4-0.7c0.3-0.3,1-0.4,3.3-0.4h2.9
	l-0.2,0.8c-1,4.7-4.3,8-9.8,9.9c-1.7,0.6-2.3,0.7-5.5,0.7C1026.3,566.3,1024.2,566.3,1023.6,566.2L1023.6,566.2z M1036.9,542
	c-0.1-2.5-1.9-5.9-4.1-7.5c-1.9-1.4-3.3-1.8-6.2-1.8c-5.5,0-7.9,1.9-9.3,7c-0.5,1.9-0.6,3.2-0.3,3.5c0.1,0.1,4.6,0.1,10,0.1l9.9-0.1
	L1036.9,542z M802.1,565.7c-4.6-0.7-8.9-2.5-11.8-5.3l-1-1l1.9-2.2c1-1.2,2.1-2.5,2.4-2.8l0.5-0.6l1.4,1.3c1.7,1.5,3.7,2.6,6,3
	c9,1.9,17.3-3.6,14.4-9.5c-1.2-2.3-3.8-4-11.4-7c-7.2-2.9-11.3-5.2-13.1-7.6c-2.1-2.7-2.9-6-2.2-9.3c0.5-2.3,1.6-4.2,3.8-6.5
	c1.8-1.8,2.4-2.2,4.6-3.3c3.9-1.9,5.5-2.3,10.7-2.3c4,0,4.5,0,6.4,0.6c1.2,0.4,2.9,1,3.8,1.5c1.8,0.9,4.4,2.7,4.6,3.1
	c0.1,0.2-3.7,5.7-4.3,6.3c0,0-0.9-0.5-1.8-1.2c-1-0.7-2.5-1.6-3.4-2c-3.2-1.2-8-1-11.8,0.4c-1.5,0.6-3.5,2.3-4.2,3.6
	c-0.7,1.4-0.6,3.2,0.2,4.5c1.3,2,2.5,2.7,9.7,5.3c8.4,3,11.9,4.9,14.2,7.4c3.5,3.9,4.3,9.4,1.9,14.1c-1.3,2.7-4.8,5.7-8.2,7.3
	C811.8,565.4,806.1,566.2,802.1,565.7L802.1,565.7z M849.5,565.7c-4.7-0.6-9-2.8-12.3-6.3c-2.1-2.2-3.4-4.4-4.4-7.4
	c-0.7-2.2-0.8-2.5-0.8-5.8c0-3.9,0.3-5.4,1.7-8.3c1.8-4,4.5-6.8,8.2-8.6c3.6-1.8,5.3-2.1,10.4-2.1c3.2,0,4.6,0.1,5,0.3
	c0.5,0.3,0.5,0.4,0.5,4v3.7l-1.6-0.3c-2.2-0.4-5.4-0.4-7.1,0c-6.1,1.6-9.2,5.9-8.9,12.3c0.1,3.1,1,5,3.4,7.4
	c2.9,2.9,5.4,3.8,9.6,3.6c1.5-0.1,3.1-0.3,3.7-0.5l1-0.4v3.7c0,2.7-0.1,3.7-0.3,3.9C856.7,565.6,852.2,566,849.5,565.7L849.5,565.7z
	 M993,565.6c-8.2-1-15-7-17-15c-0.6-2.4-0.6-6.4,0.1-9.1c1.7-7,6.1-11.7,12.9-13.7c2-0.6,2.5-0.7,6.7-0.7c3.3,0,4.7,0.1,5.1,0.3
	c0.5,0.3,0.5,0.4,0.5,3.4v3.1l-0.8-0.1c-0.4-0.1-1.4-0.3-2.2-0.4c-1.9-0.4-5.1-0.2-7.2,0.5c-4.5,1.4-7.4,4.4-8.5,8.8
	c-1.2,4.8,0,9.3,3.5,12.7c3.5,3.5,8.2,4.7,13,3.5c1-0.3,2-0.5,2.1-0.5s0.2,1.5,0.2,3.2c0,3.8,0.3,3.5-3.4,3.9
	C995.3,565.9,995.4,565.9,993,565.6L993,565.6z M583.9,565.4c-4.1-0.5-7.8-2.6-9.4-5.4c-1.3-2.3-1.8-6.3-0.9-9
	c1.3-4.5,5.9-7.7,13.1-9c2.1-0.4,10.4-0.9,11.2-0.7c0.8,0.2,2.1-0.3,2.4-0.9c0.7-1.5-0.8-5.6-2.6-7.2c-3-2.7-8.4-3.3-12.6-1.2
	c-1.6,0.8-2.9,2-4.4,3.9l-0.6,0.8l-2.4-0.4c-1.3-0.2-2.5-0.5-2.6-0.5c-0.4-0.2-0.2-1.1,0.9-3.2c1.8-3.5,4.7-5.8,8.8-6.9
	c2.4-0.6,8.6-0.6,11.2,0.1c5.5,1.5,8.8,4.4,10,9c0.5,1.8,0.5,2.5,0.5,15.7c0,11.4,0,13.8-0.3,14c-0.4,0.2-4.1,0.3-5,0.1
	c-0.5-0.1-0.5-0.3-0.5-1.1c0-1-0.3-1.6-0.9-1.6c-0.2,0-1,0.4-1.9,1s-2.2,1.2-2.9,1.5C592.1,565.2,587,565.8,583.9,565.4z M593,559.7
	c3.2-1.1,6.5-3.3,7.1-4.7c0.5-1.2,0.4-7.2-0.1-7.9c-0.3-0.4-0.8-0.4-5.3-0.3c-5.3,0.1-6.7,0.4-9.5,1.6c-4.4,2-6.2,6.8-3.6,9.7
	c1.5,1.7,3.6,2.3,7.4,2.2C590.7,560.2,592,560,593,559.7L593,559.7z M421.3,564.9c-4.5-0.3-8.7-2.3-11.7-5.5
	c-3.3-3.5-5.3-9.5-4.9-14.8c0.5-5.8,2.8-10.7,6.6-13.7c1.7-1.3,4.7-2.8,6.9-3.4c2.4-0.6,9.1-0.6,11.5,0c6.9,1.8,11.5,6.6,13,13.4
	c0.2,1.1,0.4,3,0.4,5c0,6.3-1.7,10.6-5.7,14.4C433.5,564,428.4,565.5,421.3,564.9L421.3,564.9z M426.9,559.7c2.9-0.7,5.9-3,7.4-5.9
	c2-3.9,2.7-9.4,1.6-13c-1.1-3.6-3.8-6.4-7.3-7.5c-1.4-0.5-2.3-0.6-4.3-0.6c-6.2,0-10.3,2.9-12.2,8.6c-0.8,2.5-0.9,6.5-0.2,9
	c1.4,4.9,4.4,8.2,8.7,9.2C422.3,559.9,425.5,560,426.9,559.7L426.9,559.7z M630.6,564.9c-5.1-0.8-7.2-2.7-7.8-7
	c-0.1-1-0.2-6.8-0.2-13c0-9.5-0.1-11.2-0.4-11.7c-0.3-0.5-0.6-0.5-3.1-0.6c-1.9-0.1-2.8-0.2-3-0.4c-0.1-0.2-0.2-3.4-0.1-5
	c0-0.2,0.7-0.3,2.7-0.3c2,0,2.8-0.1,3.2-0.3c0.4-0.3,0.5-0.7,0.6-5.3l0.1-5h4.1h4.1l0.1,5c0.1,3.6,0.2,5.1,0.4,5.3
	c0.2,0.2,1.5,0.3,4.2,0.4l3.9,0.1l0.1,2.5c0,1.6,0,2.6-0.2,2.8c-0.2,0.3-1.1,0.3-4,0.3c-3.1,0-3.7,0.1-4.1,0.4
	c-0.3,0.3-0.4,1.5-0.3,11.7c0.1,11.2,0.1,11.3,0.6,12.4c0.4,0.8,0.9,1.3,1.6,1.7c0.9,0.5,1.3,0.6,4.3,0.7l3.3,0.1v2.5
	c0,2-0.1,2.5-0.4,2.6C639.7,565.1,632.1,565.2,630.6,564.9L630.6,564.9z M649.6,564.6c-0.4-0.1-0.4-1.6-0.4-27.4l0.1-27.3h4h4
	l0.1,9.3c0.1,10.6,0,10.3,1.9,9.2c3.6-2,5.3-2.4,8.9-2.2c7.4,0.4,11.4,3.4,12.9,9.9c0.4,1.7,0.4,3.1,0.4,15c0,7.2-0.1,13.2-0.2,13.3
	c-0.3,0.3-7.3,0.3-7.5,0c-0.1-0.1-0.3-6.1-0.3-13.3l-0.1-13.1l-0.7-1.4c-1.3-2.5-3.6-3.6-6.8-3.4c-3.3,0.2-6.3,1.9-7.5,4.2l-0.6,1.2
	l-0.1,12.9c-0.1,7.1-0.2,13-0.3,13.1C657.1,564.6,650.3,564.7,649.6,564.6L649.6,564.6z M867.7,564.6c-0.2-0.1-0.3-4-0.3-18.2v-18.1
	h3.8h3.8l0.2,2c0.1,1.1,0.1,9.2,0.1,18c-0.1,13.9-0.1,16.1-0.4,16.3C874.4,564.7,868.2,564.8,867.7,564.6L867.7,564.6z M931.1,564.6
	c-0.4-0.1-0.4-1.2-0.4-18.3c0-16.2,0-18.2,0.4-18.6c0.3-0.3,1-0.4,3.7-0.4c1.8,0,3.4,0.1,3.6,0.2c0.2,0.1,0.4,0.7,0.5,1.4
	c0.2,1.6,0.7,1.6,2.7,0.2c2.3-1.7,3.1-1.9,7.4-2c3-0.1,4.1,0,5.6,0.3c4.7,1,7.6,3.6,8.9,7.9c0.4,1.3,0.4,3,0.5,15.2l0.1,13.8
	l-0.8,0.2c-1,0.2-5,0.2-5.7,0l-0.5-0.1v-12.2c0-10.2-0.1-12.4-0.4-13.6c-0.6-2.4-2-4.1-4.2-5.1c-1.7-0.8-5.9-1-7.9-0.4
	c-2.8,0.8-4.8,2.9-5.1,5.3c-0.1,0.5-0.2,6.5-0.3,13.4c-0.1,6.8-0.3,12.5-0.4,12.6C938.6,564.6,931.8,564.8,931.1,564.6L931.1,564.6z
	 M457.6,564.3c-0.1-0.1-0.2-6.9-0.2-15.1c0-9.9-0.1-15.1-0.2-15.4c-0.2-0.4-0.5-0.5-3.2-0.5c-1.6,0-3.3-0.1-3.6-0.2
	c-0.6-0.2-0.6-0.3-0.6-3v-2.8l1.5,0c0.8,0,2.3,0,3.4-0.1c2.6,0,2.6-0.1,2.9-4c0.1-1.8,0.3-3.9,0.5-4.8c0.8-3.4,3-6.4,5.7-7.7
	c2.6-1.2,4-1.5,9.1-1.5c4.2,0,4.7,0.1,5,0.5c0.2,0.3,0.3,1.2,0.3,2.9c0,3.7,0.3,3.4-3.6,3.3c-4-0.1-5.6,0.2-6.7,1.5
	c-1,1.2-1.2,2.1-1.4,6.2l-0.1,3.5l0.6,0.2c0.3,0.1,2.2,0.2,4.4,0.1l3.8-0.1l0.2,0.6c0.1,0.3,0.2,1.5,0.3,2.6c0.2,3,0.3,2.9-4.3,2.9
	c-3.3,0-3.8,0-4.3,0.4l-0.6,0.5l0.1,14.7c0,8.1,0,14.9-0.1,15.2c-0.1,0.4-0.6,0.4-4.4,0.4C459.7,564.5,457.7,564.4,457.6,564.3
	L457.6,564.3z M505.2,539.2v-25.3l0.5-0.1c0.9-0.2,13.8-0.2,14.4,0.1c0.4,0.1,0.7,0.6,0.9,1.4c1.7,5.1,12.3,34.9,12.6,35.3
	c0.4,0.7,1,0.7,1.3,0c0.2-0.4,9.8-27.4,12.5-35.3c0.3-1,0.6-1.4,1-1.5c0.7-0.2,13.9-0.2,14.4,0c0.3,0.1,0.4,2.6,0.4,25.4v25.3h-4.4
	h-4.4l0-18.4c0-10.1-0.1-18.6-0.2-18.7c-0.3-0.4-1.1-0.2-1.4,0.4c-0.2,0.3-7.5,18.9-13.3,33.7l-1.2,3.1h-3.8c-3.3,0-3.8-0.1-4.2-0.4
	c-0.2-0.2-2-4.6-4-9.7c-8.7-22.3-10.5-26.7-10.9-27c-0.3-0.2-0.5-0.2-0.8,0.1c-0.3,0.3-0.4,2.2-0.4,18.6v18.3h-4.6h-4.6L505.2,539.2
	L505.2,539.2z M867.4,518.5c-0.3-0.6-0.2-6.7,0.1-7c0.3-0.3,7.5-0.3,7.8,0c0.1,0.1,0.2,1.8,0.1,3.8l-0.1,3.6l-3.9,0.1
	C868,518.9,867.6,518.8,867.4,518.5L867.4,518.5z M430.7,475.9c-10.1-1-20.5-5.3-27.4-11.1c-2.4-2-3.7-3.5-3.6-3.9
	c0.1-0.3,11.7-13.8,11.9-13.8c0,0,0.3,0.5,0.7,1.1c2.8,4.8,9.3,8.5,17.6,9.9c3.6,0.6,10,0.4,13.5-0.4c5-1.2,8.5-2.7,11.2-4.9
	c6.9-5.5,7.7-13,1.9-18.9c-3.6-3.6-7.9-5.9-21.5-11.3c-9.7-3.9-12.4-5.1-16.4-7.1c-11.6-6-17.7-12.6-19.5-21.5
	c-0.5-2.4-0.5-6.8,0-9.4c1.2-6.2,5-12.5,10.2-17c11.9-10.3,30-14,46.8-9.8c7.1,1.8,14.6,5.7,19,9.8l1.6,1.5l-5.6,7.7l-5.6,7.7
	l-1.2-1.4c-3.9-4.6-9.2-7.2-17.1-8.3c-7-0.9-13.4-0.1-19.2,2.4c-2.6,1.1-4.3,2.2-6,3.8c-5.8,5.3-5.5,12.3,0.7,17.2
	c3.3,2.5,8.5,4.8,20.6,8.9c10.3,3.5,16.6,6.2,21.3,9.1c9.4,5.8,14.2,12.9,15.3,22.8c0.8,7.2-1.1,14-5.7,20.1
	c-6.7,8.8-17.2,14.5-30.9,16.5C440.4,476,433.5,476.2,430.7,475.9L430.7,475.9z M544.4,475.4c-14.2-1.1-27.8-7.3-37.9-17.4
	c-9.1-9.1-14.6-20.1-16.9-33.3c-0.6-3.8-0.6-13.5,0-17.3c1.2-7.2,3.1-12.9,6.2-18.8c7.6-14.5,20.6-25.2,36.1-29.6
	c5.7-1.6,11.1-2.4,17.5-2.4c9.2,0,16.6,1.7,25,5.9c4.9,2.4,13.2,8,13,8.8c-0.1,0.3-11.7,13.6-12,13.6c-0.1,0-0.6-0.3-1.1-0.7
	c-12.4-9.9-29.3-11.9-43.4-5c-11.3,5.5-19.7,15.8-22.4,27.7c-1.2,5.2-1.3,12.4-0.3,17.3c3.2,14.8,13.6,26.6,27.5,31.1
	c13.6,4.4,27.2,1.9,38.4-6.9c1.2-1,2.3-1.8,2.4-1.8c0.1,0,2.7,3.2,5.9,7l5.8,7l-1.2,1c-1.9,1.7-6.3,4.7-9,6.3
	C568.1,473.5,555.9,476.3,544.4,475.4L544.4,475.4z M769.2,475.4c-18.2-1.4-35-11.3-45.2-26.8c-4.7-7.1-7.8-15.2-9.1-23.9
	c-0.5-3.5-0.7-10.4-0.4-14c0.9-9.8,4.1-18.8,9.4-27c8-12.3,20.4-21.4,34.3-25.1c20.7-5.5,42.4,0.3,57.4,15.2c5,5,8.3,9.6,11.4,15.7
	c4.1,8.2,5.9,15.6,6.2,24.9c0.1,5-0.2,9.3-1.1,13.7c-4.6,22-21.6,39.8-43.3,45.5C782.1,475.4,776,475.9,769.2,475.4L769.2,475.4z
	 M780.9,456.5L780.9,456.5c12.6-2.1,23.9-10.6,29.6-22.2c4.3-8.7,5.4-17.9,3.4-27.2c-0.8-3.4-1.5-5.4-3.1-8.8
	c-2.3-4.8-4.9-8.3-9-12.2c-7.1-6.8-16.5-10.7-26.5-11.1c-20.5-0.8-38.6,13.9-42.1,34.2c-0.4,2.1-0.5,3.8-0.5,6.9s0.1,4.8,0.5,6.9
	c3.2,18.3,18.3,32.3,36.9,34 M898.9,475.5c-16.7-1.1-32.5-9.3-42.9-22.4c-5.3-6.7-9.7-15.7-11.5-23.9c-1.1-4.9-1.4-7.6-1.4-13
	c0-5.1,0.2-7.6,1.1-11.9c3.7-18.5,15.9-34,33.2-42.3c7.7-3.7,16.1-5.6,25-5.6c7.1,0,12.6,0.9,19,3c14.9,5,27.5,15.8,34.4,29.7
	c4.4,8.9,6.3,16.9,6.3,26.8c0,7-0.8,12.2-3,18.8c-2.9,8.8-7.6,16.4-14.5,23.2c-9.2,9.3-20.7,15.1-33.4,16.9
	C907.8,475.4,901.7,475.7,898.9,475.5L898.9,475.5z M905.9,456.9c22.1-1.9,38.7-20.7,37.7-42.7c-0.9-20-16-36.4-35.9-39
	c-17.3-2.3-34.3,6.9-42.1,22.7c-6.5,13.1-5.4,28.8,2.8,41.1c7.4,11.1,19.7,17.8,33.6,18.2C902.6,457.2,904.3,457.1,905.9,456.9
	L905.9,456.9z M600.3,474.1c-0.2-0.1-0.3-11.9-0.3-58v-57.9l0.8-0.1c1-0.2,14.6-0.2,17.4,0l2.2,0.2l0.1,24.6l0.1,24.6l0.5,0.5
	l0.5,0.5l27,0.1c23.8,0.1,27.1,0,27.6-0.3l0.6-0.4l0.1-24.7c0-13.6,0.2-24.8,0.3-24.9c0.2-0.2,11.8-0.3,17.1-0.1l3.2,0.1V416
	c0,52.6,0,57.9-0.4,58c-0.6,0.2-19.4,0.2-19.8-0.1c-0.3-0.2-0.4-3.2-0.4-24.1c-0.1-23.8-0.1-23.9-0.6-24.3
	c-0.5-0.4-1.4-0.5-27.7-0.5c-23.3-0.1-27.2,0-27.6,0.3c-0.5,0.3-0.5,0.8-0.5,24.5l-0.1,24.1l-0.5,0.1
	C619.2,474.3,600.7,474.3,600.3,474.1L600.3,474.1z M1049.3,474c0-0.2-11.8-0.2-35-0.2h-35v-57.8v-57.8l10,0.1l10,0.1l0.1,49.3
	l0.1,49.3l0.5,0.4c0.5,0.4,2,0.4,25,0.4c16.1,0,24.5-0.1,24.5-0.2c0-0.1,0.1-0.2,0.2-0.2c0.2,0,0.2,3,0.2,8.5c0,5.5-0.1,8.5-0.2,8.5
	C1049.4,474.2,1049.3,474.1,1049.3,474L1049.3,474z M614.8,318c-13.1-1.3-27.6-8.2-37.3-17.6c-5.1-5-8.4-9.5-11.5-15.8
	c-5.9-12-7.2-24.4-4.1-37.7c3.8-16.1,12.7-29.3,25.3-37.6c3.1-2.1,8.8-4.8,12.6-6c16.8-5.5,35-4.3,50.1,3.3c1.5,0.7,3.6,1.9,4.7,2.7
	c2.6,1.8,5.8,4.4,5.8,4.9c0,0.3-9.4,13.6-9.9,13.9c-0.1,0.1-1-0.5-2.1-1.2c-4.1-2.9-8.9-5.4-13.6-6.9c-10.9-3.6-21.5-3-31.6,1.9
	c-12.7,6.1-21.1,17.8-23.7,33c-0.5,3.2-0.5,9.5,0,12.5c3.1,16.4,16.2,29.4,33.3,33.2c3.4,0.7,12.3,0.8,15.7,0.1
	c6.7-1.4,13.2-4.4,18.7-8.9c3-2.4,2.9-2.1,3-9.6c0.1-5.4,0-6.6-0.3-7c-0.3-0.5-0.7-0.5-15.6-0.5c-8.4,0-15.3-0.1-15.4-0.2
	c-0.2-0.2-0.4-14.8-0.2-16.2l0.1-1h24.7c19.5,0,24.7,0.1,24.9,0.3c0.2,0.4,0.4,50.5,0.2,54.8l-0.2,3.2l-9.2-0.1l-9.2-0.1l-0.1-2
	c-0.1-1.6-0.2-2.1-0.5-2.1c-0.2,0-1.5,0.5-2.8,1.1C637,317,625.7,319.1,614.8,318L614.8,318z M414.2,317.1l-9.5-0.1l0.1-58l0.1-58
	H415h10.2l0.1,24.8l0.1,24.8l0.5,0.4c0.5,0.4,2.2,0.4,27.7,0.4c25.5,0,27.2,0,27.7-0.4l0.5-0.4l0.1-24.8l0.1-24.8H492h10.2v58v58
	l-10.1,0.1c-7.9,0-10.1,0-10.3-0.2c-0.1-0.2-0.2-11-0.2-24.1c0-21.3,0-23.8-0.4-24.2c-0.3-0.3-3.2-0.4-27.8-0.4
	c-16.8,0-27.5,0.1-27.8,0.2c-0.3,0.2-0.4,3.3-0.5,24.4l-0.1,24.2l-0.7,0.1C424,317.1,419.4,317.1,414.2,317.1L414.2,317.1z
	 M776.5,317.1L767,317v-23.9c0-21.3,0-24-0.4-24.5l-0.4-0.5h-27.6c-25.3,0-27.6,0-27.9,0.4c-0.3,0.3-0.3,4.5-0.4,24.5l-0.1,24.1
	h-10.2h-10.2l-0.1-0.9c-0.3-1.6-0.2-114,0.1-114.6l0.2-0.6l10,0.1l10,0.1l0.1,24.9c0.1,20,0.2,24.9,0.4,25.2
	c0.3,0.3,5.6,0.3,27.5,0.4c25.6,0.1,27.6,0,28.5-0.5c0,0,0.1-11.3,0.2-25l0.1-25l10-0.1l10-0.1l0.2,0.6c0.4,1,0.3,115.3-0.1,115.4
	C786.6,317.1,785.3,317.2,776.5,317.1L776.5,317.1z M524.7,259l0.1-57.8h9.2h9.2l0.1,57.8l0.1,57.8H534h-9.4L524.7,259z
	 M670.6,162.8c-0.3,0-1.6-0.2-2.8-0.4c-6.9-0.9-16.2-4.5-22-8.5c-2.2-1.5-6.4-5.5-6.4-6c0-0.3,11.4-13.6,11.8-13.7
	c0.1,0,0.3,0.2,0.5,0.5c0.7,1.3,2.5,3.4,4,4.7c2.9,2.4,7.3,4.3,12.6,5.4c3.5,0.8,10.2,0.8,13.8,0c10.3-2.2,16.7-7.1,17.8-13.7
	c0.8-4.2-1.2-8.4-5.6-11.8c-3.7-2.9-8.2-5.2-19.7-9.8c-17.3-6.9-23.7-10.5-29.1-16.1c-7.7-8-9.3-18.6-4.4-28.6
	c5-10.3,16.6-18.2,30.5-20.9c7.3-1.4,17.3-1,24.4,0.8c7.5,2,14.1,5.4,19.4,10.1l1.2,1l-1.4,1.9c-0.8,1.1-3.3,4.5-5.6,7.7l-4.2,5.8
	l-1.9-2c-5-5.3-11.9-7.8-21.8-7.9c-4.4,0-7.3,0.4-11,1.6c-8.2,2.7-13,7.6-13,13.3c0,2.9,1.1,5.2,3.7,7.7c3.4,3.2,7.2,4.9,21.2,9.8
	c9.5,3.3,13.3,4.8,17.5,6.9c10.7,5.4,16.9,12.2,19,20.8c2.7,10.9-0.2,20.6-8.6,28.7c-3.7,3.5-6.4,5.4-11,7.6
	c-7,3.4-15.8,5.2-24.3,5.1C672.9,162.9,670.9,162.9,670.6,162.8L670.6,162.8z M571,162c-13.9-1.2-24.3-5.6-31.2-12.9
	c-6.1-6.5-9.6-14.7-11.5-26.8c-0.4-2.4-0.4-6.5-0.5-40.5L527.7,44l0.8-0.2c1.2-0.2,17.9-0.2,18.6,0.1l0.6,0.2l0.1,37.1
	c0.1,41.1,0,38.5,1.6,44.9c2.8,11,9.3,17.7,19.2,20c2.7,0.6,9.6,0.9,12.8,0.5c9.2-1.2,15.8-5.6,19.7-13.2c2.6-5.1,3.8-10.4,4.2-17.9
	c0.1-2.4,0.2-19.5,0.2-37.9l0-33.6l0.8-0.1c1-0.2,17.4-0.2,18.4,0l0.8,0.1l0,35.3c0,36.2-0.1,39.9-1,45.1
	c-2.7,16.1-10.3,27.1-22.6,32.8c-4.3,2-10.7,3.7-16.7,4.4C581.4,162.1,574.3,162.3,571,162L571,162z M406.5,161.2
	c-0.2-0.7-0.2-115.8,0-116.5l0.1-0.5l7.4,0c6.6,0,7.4,0,8,0.4c0.3,0.2,8.4,10,17.9,21.8c41,50.8,47.2,58.4,47.6,58.4
	c0.2,0,0.5-0.2,0.6-0.4c0.1-0.2,0.1-18.2,0.1-40c0-21.8,0.1-39.8,0.2-39.9c0.2-0.2,2.1-0.3,8.9-0.2l8.7,0.1V103v58.7l-7.5,0.1
	c-7.3,0.1-7.5,0.1-8.1-0.4c-0.4-0.3-3.3-3.8-6.6-7.9c-10.2-12.7-56.5-69.9-57.5-71.1c-0.6-0.8-1.1-1.1-1.5-1.1h-0.6l-0.1,40.3
	l-0.1,40.3l-8.8,0.1l-8.8,0.1L406.5,161.2z"/>
<g>
	<path class="st1" d="M131.3,568.8c-0.4-0.8-1.1-0.5-1.7-0.5c-29.9-2-56.4-12.7-79.6-31.5c-15.4-12.4-27.6-27.5-36.5-45.2
		c-6.1-12.1-10.1-24.8-11.9-38.3c-0.5-3.6-0.6-7.2-1-10.7c-0.9-7.6-0.4-15.2-0.4-22.7c0-120.8,0-241.6,0-362.4
		c-1.1-13.8,13.4-23.1,23.1-22.4c5.6,0.4,10.3,2.8,14.3,6.5c3,2.8,5.2,6,6.1,10.1c0.2,1.1,0.2,2.2,0.2,3.3c0,78.2,0,156.5,0,234.7
		c0,46.4-0.1,92.8,0.1,139.2c0,11.1,1.4,22.1,5.1,32.7c4.1,11.6,10,22.1,18.1,31.3c8.2,9.3,17.8,16.7,28.9,22.2
		c10.6,5.2,21.8,8.2,33.5,9.1c18.3,1.4,35.4-2.3,51.5-11.1c13.7-7.5,24.8-17.9,33.3-31.1c6.5-10.1,10.9-21.1,13.1-32.9
		c1.1-6.1,1.6-12.3,1.6-18.6c0-6.7,2.4-12.5,7.2-17.2c8.7-8.6,23.8-7.5,31.2,2.2c3.7,4.9,5.4,10.5,5.4,16.6
		c-0.1,12.3-1.6,24.4-5,36.2c-4.9,17.4-12.8,33.2-24,47.4c-9.6,12.3-20.9,22.6-34,31c-12.2,7.8-25.3,13.6-39.4,17.2
		c-9,2.3-18.1,3.7-27.4,4.2c-0.5,0-1.2-0.1-1.4,0.5C138.3,568.8,134.8,568.8,131.3,568.8z"/>
	<path class="st1" d="M272.6,147.6c0,1,0,1.9,0,2.8c0,16.1,0,32.2,0,48.2c0,7.2-3,12.9-8.4,17.2c-12,9.5-28.4,3.8-33.6-9.7
		c-1.1-2.8-1.4-5.7-1.4-8.6c0.1-15.8,0-31.5,0-47.3c0-0.9,0-1.7,0-3c-1.9,1.1-3.5,1.9-5.1,2.8c-17.2,10-34.5,19.9-51.7,29.9
		c-1,0.6-2.1,1.2-3.2,1.6c-2.7,1-5.3,0.2-6.9-2.2c-1.4-2.2-2.7-4.5-4-6.8c-3.9-6.8-7.8-13.6-11.7-20.4c-1.9-3.3-1.2-6.4,2.1-8.4
		c4.2-2.6,8.5-5.1,12.8-7.6c9.8-5.6,19.5-11.3,29.3-16.9c4.7-2.7,9.4-5.4,14.1-8.1c0.7-0.4,1.3-0.9,2-1.3c-0.1-1-0.9-1.2-1.5-1.5
		c-13.5-7.8-27-15.5-40.5-23.3c-5-2.9-10-5.7-14.9-8.6c-0.8-0.5-1.6-1-2.3-1.7c-2.2-2-2.6-4.8-1.1-7.4c5.2-9,10.4-18,15.6-27
		c1.7-2.8,4.8-3.8,7.9-2.3c1.7,0.8,3.2,1.7,4.8,2.6c17.5,10.1,35,20.2,52.5,30.3c0.3,0.2,0.5,0.4,0.8,0.5c0.7,0.3,1.1,0,1.1-0.7
		c0-0.6,0-1.1,0-1.7c0-20.4,0-40.8,0-61.2c0-1,0-2.1,0.1-3.1c0.4-2.8,2.4-4.6,5.2-4.7c10.9,0,21.8,0,32.6,0c3,0,5.1,2.1,5.3,5.1
		c0.1,1,0,1.9,0,2.9c0,20.3,0,40.6,0,61c0,3.1,0,3.1,2.7,1.5c18.4-10.6,36.7-21.2,55.1-31.7c0.6-0.4,1.3-0.7,1.9-1
		c2.8-1,5.9-0.4,7.6,2.6c4.7,8.3,9.6,16.6,14.4,24.9c0.2,0.4,0.5,0.8,0.7,1.2c2.2,3.8,1.4,7.1-2.3,9.3c-2.9,1.8-5.9,3.5-8.9,5.2
		c-10.8,6.2-21.6,12.4-32.4,18.7c-4.7,2.7-9.4,5.4-14.1,8.1c-0.7,0.4-1.6,0.7-2.3,1.5c0.5,1.2,1.8,1.5,2.7,2.1
		c7.1,4.1,14.3,8.2,21.4,12.3c10.9,6.3,21.7,12.5,32.6,18.8c0.5,0.3,1,0.6,1.4,0.9c3.2,2.2,4,5.4,2.1,8.7c-3.5,6.1-7,12.2-10.6,18.3
		c-1.5,2.6-3.1,5.2-4.5,7.9c-1.8,3.6-5.8,4.3-8.8,2.6c-4.2-2.4-8.3-4.8-12.5-7.2c-10.3-5.9-20.5-11.8-30.8-17.7
		c-4.3-2.5-8.6-5-12.9-7.5C274.5,148.2,273.9,147.6,272.6,147.6z"/>
	<path class="st1" d="M190.9,246.6c36.4,0,72.8,0,109.2,0c5.1,0,9.2,1.9,12.7,5.3c4.1,4,6.7,9,7.5,14.7c0.4,2.8-0.2,5.6-1.2,8.2
		c-1.6,4.4-4.2,8.3-7.9,11.2c-3.1,2.5-6.5,4-10.6,3.9c-6.9-0.1-13.8,0-20.6,0c-1.3,0-2.6,0.2-3.8,0.5c-2.7,0.6-4.5,2.9-4.7,5.7
		c-0.1,1.2-0.1,2.4-0.1,3.6c0,22.2,0,44.3,0,66.5c0,0.7,0,1.4,0,2.2c0.8,12.5-10.4,23.9-23.2,22.8c-9.1-0.8-15.3-5.8-18.8-14.2
		c-1-2.4-1.4-4.8-1.4-7.5c0.1-18.1,0.1-36.2-0.1-54.2c-0.1-6.2-0.2-12.5-0.2-18.7c0-1.7-0.7-3.1-2-4.1c-1.9-1.5-4-2.4-6.6-2.4
		c-12.2,0.1-24.5,0-36.7,0.2c-5.5,0.1-11,0.3-16.5,0.1c-3.1-0.1-6.4,2.6-6.4,6.4c0,4-0.1,8-0.1,12c0,8.6,0,17.3-0.1,25.9
		c-0.1,12.4-0.1,24.8-0.4,37.2c-0.1,3.7-1.8,7-3.8,9.9c-7.6,11.1-22.3,12.5-31.7,4.3c-2.8-2.5-4.8-5.5-6.3-8.9
		c-1.2-2.7-1.5-5.4-1.5-8.4c0.1-23.3,0-46.6,0-69.8c0-1,0-2.1-0.2-3.1c-0.6-3.4-2.8-5.3-6.2-5.4c-9.3-0.3-18.6-0.3-27.8-0.3
		c-0.6,0-1.3,0-1.9,0c-3.3-0.2-5.3-2.2-5.4-5.5c-0.1-2.3,0-4.6,0-7c0-8,0-16,0-24c0-1,0-1.9,0.3-2.9c0.6-2.2,2.1-3.6,4.3-3.9
		c0.7-0.1,1.4-0.1,2.2-0.1C117.6,246.6,154.3,246.6,190.9,246.6z"/>
</g>
</svg>
